HIERARCHY
ROOT Hips
{
	OFFSET	0.00	0.00	0.00
	CHANNELS 6 Xposition Yposition Zposition Zrotation Xrotation Yrotation
	JOINT LeftUpLeg
	{
		OFFSET	 0.126116	-0.014019	-0.065224
		CHANNELS 3 Zrotation Xrotation Yrotation
		JOINT LeftLeg
		{
			OFFSET	 0.000000	 0.000000	 0.569914
			CHANNELS 3 Zrotation Xrotation Yrotation
			JOINT LeftFoot
			{
				OFFSET	 0.000000	 0.000000	 0.544423
				CHANNELS 3 Zrotation Xrotation Yrotation
				JOINT LeftToeBase
				{
					OFFSET	 0.000000	 0.000000	 0.207117
					CHANNELS 3 Zrotation Xrotation Yrotation
					End Site
					{
						OFFSET	 0.000000	 0.000000	 0.207117
					}
				}
			}
		}
	}
	JOINT RightUpLeg
	{
		OFFSET	-0.124023	-0.008373	-0.065224
		CHANNELS 3 Zrotation Xrotation Yrotation
		JOINT RightLeg
		{
			OFFSET	 0.000000	 0.000000	 0.570047
			CHANNELS 3 Zrotation Xrotation Yrotation
			JOINT RightFoot
			{
				OFFSET	 0.000000	 0.000000	 0.544354
				CHANNELS 3 Zrotation Xrotation Yrotation
				JOINT RightToeBase
				{
					OFFSET	 0.000000	 0.000000	 0.207540
					CHANNELS 3 Zrotation Xrotation Yrotation
					End Site
					{
						OFFSET	 0.000000	 0.000000	 0.207540
					}
				}
			}
		}
	}
	JOINT Spine
	{
		OFFSET	 0.000184	-0.007763	 0.117403
		CHANNELS 3 Zrotation Xrotation Yrotation
		JOINT Spine1
		{
			OFFSET	 0.000000	 0.000000	 0.137269
			CHANNELS 3 Zrotation Xrotation Yrotation
			JOINT Spine2
			{
				OFFSET	 0.000000	 0.000000	 0.156879
				CHANNELS 3 Zrotation Xrotation Yrotation
				JOINT LeftShoulder
				{
					OFFSET	 0.080501	-0.002496	 0.160144
					CHANNELS 3 Zrotation Xrotation Yrotation
					JOINT LeftArm
					{
						OFFSET	 0.000000	 0.000000	 0.164363
						CHANNELS 3 Zrotation Xrotation Yrotation
						JOINT LeftForeArm
						{
							OFFSET	 0.000000	 0.000000	 0.364576
							CHANNELS 3 Zrotation Xrotation Yrotation
							JOINT LeftHand
							{
								OFFSET	 0.000000	 0.000000	 0.360812
								CHANNELS 3 Zrotation Xrotation Yrotation
								JOINT LeftHandIndex1
								{
									OFFSET	 0.000000	 0.000000	 0.086006
									CHANNELS 3 Zrotation Xrotation Yrotation
									JOINT LeftHandIndex2
									{
										OFFSET	 0.000000	 0.000000	 0.047236
										CHANNELS 3 Zrotation Xrotation Yrotation
										JOINT LeftHandIndex3
										{
											OFFSET	-0.004284	-0.000551	 0.038166
											CHANNELS 3 Zrotation Xrotation Yrotation
											End Site
											{
												OFFSET	-0.004284	-0.000551	 0.038166
											}
										}
									}
								}
							}
						}
					}
				}
				JOINT Neck
				{
					OFFSET	 0.000000	 0.000000	 0.176489
					CHANNELS 3 Zrotation Xrotation Yrotation
					JOINT Head
					{
						OFFSET	 0.000000	-0.001747	 0.077940
						CHANNELS 3 Zrotation Xrotation Yrotation
						End Site
						{
							OFFSET	 0.000000	-0.001747	 0.077940
						}
					}
				}
				JOINT RightShoulder
				{
					OFFSET	-0.080363	 0.000306	 0.159706
					CHANNELS 3 Zrotation Xrotation Yrotation
					JOINT RightArm
					{
						OFFSET	 0.000000	 0.000000	 0.164196
						CHANNELS 3 Zrotation Xrotation Yrotation
						JOINT RightForeArm
						{
							OFFSET	 0.000000	 0.000000	 0.365611
							CHANNELS 3 Zrotation Xrotation Yrotation
							JOINT RightHand
							{
								OFFSET	 0.000000	 0.000000	 0.360648
								CHANNELS 3 Zrotation Xrotation Yrotation
								JOINT RightHandIndex1
								{
									OFFSET	 0.000000	 0.000000	 0.069977
									CHANNELS 3 Zrotation Xrotation Yrotation
									JOINT RightHandIndex2
									{
										OFFSET	 0.000000	 0.000000	 0.052305
										CHANNELS 3 Zrotation Xrotation Yrotation
										JOINT RightHandIndex3
										{
											OFFSET	 0.009002	-0.000782	 0.042196
											CHANNELS 3 Zrotation Xrotation Yrotation
											End Site
											{
												OFFSET	 0.009002	-0.000782	 0.042196
											}
										}
									}
								}
							}
						}
					}
				}
			}
		}
	}
}
MOTION
Frames:    7
Frame Time: 0.03333334
-0.000625	 0.020210	 1.263947	 0.003279	-0.002386	-0.176997	-4.377557	-4.224942	 178.821900	 1.389943	-17.312720	-1.027488	-8.047551	 74.008910	 1.960340	-2.385833	 28.452760	 0.000004	 4.309905	-4.812337	-178.489100	-1.363333	-18.092620	 1.057137	 7.982699	 74.247470	-2.016525	 2.384658	 28.388730	 0.000004	 4.178117	 2.960572	-0.135382	 2.129813	 2.922374	 0.882687	-6.419677	-3.534122	-1.332001	-91.776210	 78.527470	-180.000000	 73.435350	 45.863320	-60.436630	-8.159808	 0.190124	-0.474391	-29.167310	 2.714250	-4.354663	-2.635965	 4.993658	 6.788941	-5.165319	 0.784187	 3.516649	-5.225038	 0.466231	 0.424329	-0.000002	-3.783157	-0.089647	-6.282651	 5.085422	 0.279263	 89.782120	 78.203900	 180.000000	-62.773260	 41.212550	 53.459310	 7.079035	 5.573080	 13.039630	 28.231210	 1.662276	 8.797809	 6.112037	 4.509576	-0.364401	 4.968462	 1.518543	-9.347576	 5.168945	 0.703820	 2.021906
-0.000608	 0.020710	 1.256506	 0.004720	-0.000178	-0.153246	-4.739546	-6.431488	 178.988500	 1.290780	-21.867680	-1.322993	-10.012980	 76.304140	 3.979400	-2.385833	 28.452760	 0.000004	 4.644269	-6.927135	-178.686900	-1.266260	-22.451340	 1.337108	 9.820346	 76.444810	-3.933499	 2.384658	 28.388730	 0.000004	 3.882033	 3.153277	-0.152970	 1.984564	 2.234256	 0.862589	-5.987914	-2.679597	-1.187267	-91.776160	 78.527450	 180.000000	 73.000880	 45.790350	-60.351380	-8.143144	 0.190726	-0.475863	-29.167410	 2.714279	-4.354646	-2.635965	 4.993658	 6.788941	-5.165319	 0.784187	 3.516649	-5.225038	 0.466231	 0.424329	-0.000002	-3.783157	-0.089647	-5.894305	 5.548105	 0.285840	 89.782090	 78.203870	-180.000000	-62.475850	 40.406090	 54.574180	 6.182139	 5.095031	 12.486220	 28.457500	 0.971839	 8.390018	 6.112037	 4.509576	-0.364401	 4.968462	 1.518543	-9.347576	 5.168945	 0.703820	 2.021906
-0.000573	 0.021269	 1.248251	 0.006162	 0.002581	-0.121635	-5.113489	-8.448670	 179.130500	 1.173957	-26.038040	-1.610550	-12.484500	 78.390350	 6.515013	-2.385833	 28.452760	 0.000004	 5.015828	-8.881720	-178.879800	-1.152248	-26.483170	 1.612203	 12.196610	 78.462080	-6.371351	 2.384658	 28.388730	 0.000004	 3.316583	 3.349361	-0.149298	 1.715976	 1.530894	 0.782239	-5.180542	-1.824271	-0.979634	-91.776210	 78.527470	-180.000000	 72.494170	 45.735570	-60.178100	-8.116690	 0.190763	-0.475999	-29.167350	 2.714264	-4.354650	-2.635965	 4.993658	 6.788941	-5.165319	 0.784187	 3.516649	-5.225038	 0.466231	 0.424329	-0.000002	-3.783157	-0.089647	-5.128440	 6.056011	 0.271450	 89.782070	 78.203890	-180.000000	-61.822660	 39.304130	 56.497650	 4.782277	 4.226752	 11.179040	 28.638000	 0.064029	 7.809208	 6.112037	 4.509576	-0.364401	 4.968462	 1.518543	-9.347576	 5.168945	 0.703820	 2.021906
-0.000515	 0.021831	 1.240047	 0.006803	 0.004622	-0.087506	-5.478315	-10.183080	 179.247100	 1.050312	-29.632050	-1.875234	-15.470100	 80.167020	 9.556534	-2.385833	 28.452760	 0.000004	 5.374818	-10.571980	-179.053600	-1.031983	-29.973320	 1.866358	 15.063000	 80.188200	-9.292332	 2.384658	 28.388730	 0.000004	 2.519447	 3.514528	-0.116967	 1.343501	 0.938405	 0.637507	-4.057140	-1.117613	-0.736793	-91.776180	 78.527470	 180.000000	 71.967510	 45.697950	-59.894170	-8.168804	 0.190222	-0.474610	-29.084270	 2.725232	-4.341173	-2.635965	 4.993658	 6.788941	-5.165319	 0.784187	 3.516649	-5.225038	 0.466231	 0.424329	-0.000002	-3.783157	-0.089647	-4.035444	 6.512734	 0.229679	 89.782140	 78.203870	 180.000000	-60.042140	 37.577740	 57.845810	 2.451368	 3.828472	 11.530980	 28.088950	-1.064661	 6.727402	 6.112037	 4.509576	-0.364401	 4.968462	 1.518543	-9.347576	 5.168945	 0.703820	 2.021906
-0.000440	 0.022336	 1.232842	 0.006142	 0.005022	-0.057382	-5.793475	-11.552330	 179.337900	 0.935105	-32.477310	-2.098499	-18.728900	 81.549820	 12.859890	-2.385833	 28.452760	 0.000004	 5.684373	-11.910320	-179.195100	-0.920293	-32.741300	 2.080931	 18.179880	 81.534690	-12.453370	 2.384658	 28.388730	 0.000004	 1.650714	 3.632541	-0.093444	 0.941392	 0.530176	 0.513858	-2.844511	-0.645374	-0.527929	-91.776200	 78.527450	-180.000000	 71.476660	 45.674270	-59.516960	-8.168695	 0.190046	-0.474156	-29.050740	 2.729654	-4.335741	-2.635965	 4.993658	 6.788941	-5.165319	 0.784187	 3.516649	-5.225038	 0.466231	 0.424329	-0.000002	-3.783157	-0.089647	-2.839301	 6.833701	 0.169544	 89.782120	 78.203870	 180.000000	-56.899620	 35.476180	 58.571430	-0.378752	 3.750335	 13.453650	 27.007230	-2.124612	 5.340315	 6.112037	 4.509576	-0.364401	 4.968462	 1.518543	-9.347576	 5.168945	 0.703820	 2.021906
-0.000324	 0.022919	 1.224627	 0.003607	 0.003296	-0.024499	-6.145540	-12.977340	 179.433800	 0.796078	-35.448300	-2.347274	-23.491310	 82.955440	 17.668810	-2.385833	 28.452760	 0.000004	 6.031518	-13.305430	-179.345400	-0.785980	-35.633250	 2.319889	 22.706120	 82.905570	-17.026540	 2.384658	 28.388730	 0.000004	 0.520725	 3.706949	 0.005038	 0.423895	 0.263297	 0.235140	-1.281045	-0.332642	-0.233541	-91.776180	 78.527450	 180.000000	 70.890310	 45.652200	-58.924390	-8.168484	 0.190137	-0.474487	-29.008070	 2.735251	-4.328794	-2.635965	 4.993658	 6.788941	-5.165319	 0.784187	 3.516649	-5.225038	 0.466231	 0.424329	-0.000002	-3.783157	-0.089647	-1.285324	 7.062853	 0.079310	 89.782090	 78.203890	 180.000000	-52.188250	 32.809130	 62.350230	-3.667032	 2.504922	 11.615480	 25.197460	-3.048344	 3.535074	 6.112037	 4.509576	-0.364401	 4.968462	 1.518543	-9.347576	 5.168945	 0.703820	 2.021906
-0.000171	 0.024812	 1.222639	-0.001329	 0.001483	 0.013922	-6.243066	-13.325760	 179.427900	 0.760546	-36.142390	-2.408021	-24.804960	 83.257290	 18.992750	-2.385833	 28.452760	 0.000004	 6.127926	-13.701230	-179.398500	-0.754392	-36.257220	 2.373698	 23.705410	 83.104290	-18.041250	 2.384658	 28.388730	 0.000004	-0.689885	 3.720873	 0.111522	-0.123675	 0.209855	-0.075537	 0.376179	-0.269122	 0.071298	-91.776120	 78.527470	 179.999900	 70.233810	 45.614720	-58.081550	-8.168803	 0.190239	-0.474645	-28.961780	 2.741329	-4.321259	-2.635965	 4.993658	 6.788941	-5.165319	 0.784187	 3.516649	-5.225038	 0.466231	 0.424329	-0.000002	-3.783157	-0.089647	 0.368268	 7.114365	-0.022907	 89.782150	 78.203900	 180.000000	-45.191020	 29.415760	 65.078790	-7.357299	 1.861941	 12.536130	 22.686120	-3.548803	 1.534453	 6.112037	 4.509576	-0.364401	 4.968462	 1.518543	-9.347576	 5.168945	 0.703820	 2.021906
